<svg aria-hidden="true" style="width:0;height:0;position:absolute;overflow:hidden" xmlns="http://www.w3.org/2000/svg"><defs><symbol id="icon-logo" viewBox="0 0 127 32"><path fill="#fff" style="fill:var(--color1,#fff)" d="M31.36 16.32C31.36 24.98 24.483 32 16 32S.64 24.98.64 16.32 7.517.64 16 .64s15.36 7.02 15.36 15.68z"/><path fill="#d41443" style="fill:var(--color2,#d41443)" d="M11.849.561C4.444 2.804 0 8.635 0 16.003c0 6.022 3.091 11.277 8.179 13.904 2.64 1.345 3.027.384.579-1.474-1.738-1.409-2.061-2.05-2.061-4.421 0-1.666-.386-3.011-.966-3.524-1.158-.961-1.288-3.46-.128-4.357.45-.384.901-1.666.965-2.819.323-4.228 4.895-8.201 9.467-8.201s9.144 3.972 9.466 8.201c.064 1.153.515 2.435.966 2.819 1.158.897 1.03 3.396-.129 4.357-.579.513-.966 1.858-.966 3.524 0 2.371-.321 3.012-2.06 4.421-2.705 2.115-1.932 2.883 1.094 1.025 4.251-2.627 7.406-8.33 7.406-13.391 0-10.124-10.561-18.325-19.964-15.506z"/><path fill="#d41443" style="fill:var(--color2,#d41443)" d="M12.687 7.994c-1.16.513-2.125 1.154-2.125 1.538 0 .705 3.478 1.987 5.474 1.987s5.474-1.281 5.474-1.987c0-.768-3.993-2.499-5.603-2.499-.644.064-2.125.448-3.22.961zm33.164 3.332c-.966.256-1.158 1.089-1.158 5.702v5.382h4.572l-.193-5.574c-.193-5.83-.451-6.28-3.22-5.51zm7.535.32c-2.125 1.154-2.898 2.563-2.898 5.318 0 3.78 2.061 5.574 5.86 5.318 2.576-.192 2.833-.385 3.027-1.987s.064-1.73-1.932-1.602c-2.061.192-2.125.064-2.125-2.051s.129-2.243 1.997-2.05c1.545.128 2.125-.128 2.382-1.089.129-.641 0-1.538-.387-1.923-.901-.897-4.25-.897-5.924.064zm7.664.064c-.194.513-.258 3.012-.129 5.638l.193 4.742H65.3c3.864 0 4.186-.128 4.379-1.474.193-1.217-.064-1.409-2.06-1.409-1.288 0-2.319-.32-2.319-.641 0-.385.902-.641 1.932-.641 1.481 0 1.932-.256 1.932-1.281s-.451-1.281-1.932-1.281c-1.03 0-1.932-.32-1.932-.641 0-.385.837-.641 1.868-.641 1.804 0 3.027-1.409 2.254-2.627-.58-.961-7.985-.705-8.371.256zm12.943-.192c-2.125.833-2.962 2.307-3.027 4.998-.065 4.613 1.803 6.215 6.633 5.766 1.868-.128 2.189-.448 2.189-1.794 0-1.409-.257-1.602-2.061-1.409-1.546.128-2.125-.064-2.447-1.089-.58-1.987.644-3.588 2.705-3.588 1.224 0 1.868-.384 1.996-1.217.451-2.051-2.833-3.011-5.989-1.666zm7.921-.256c-.323.256-.515 2.883-.515 5.83v5.382l2.06-.192c1.61-.128 2.19-.577 2.512-1.795l.386-1.602.515 1.73c.387 1.474.837 1.795 2.512 1.795 2.769 0 3.091-.449 1.932-2.691-.708-1.41-.837-2.115-.322-2.627.837-.833.902-3.652.129-4.87-.644-1.025-8.371-1.858-9.208-.961zm5.28 3.46c0 .705-.257 1.281-.644 1.281-.322 0-.644-.576-.644-1.281s.322-1.282.644-1.282c.387 0 .644.577.644 1.282zm6.247-3.396c-.258.192-.451 2.819-.451 5.766v5.318h4.186c4.057 0 4.186-.064 4.186-1.602 0-1.346-.322-1.602-1.932-1.602-1.03 0-1.932-.32-1.932-.641 0-.385.708-.641 1.61-.641 1.159 0 1.61-.321 1.61-1.282s-.451-1.281-1.61-1.281c-.902 0-1.61-.32-1.61-.641 0-.384.902-.641 1.932-.641 1.61 0 1.932-.256 1.932-1.602 0-1.538-.193-1.602-3.735-1.602-2.061 0-3.992.192-4.186.448zm13.009-.064c-1.16.32-4.122 8.842-3.542 10.252.515 1.281 3.413 1.153 4.186-.192.579-1.089.644-1.089 1.803 0 1.482 1.281 4.701 1.474 4.701.256 0-.384-.644-2.947-1.482-5.574-1.288-4.228-1.674-4.805-3.027-4.933-.902 0-2.061.064-2.64.192zm1.803 5.83c-.193.641-.322.256-.322-.769 0-1.089.129-1.538.322-1.153.129.448.129 1.345 0 1.922zm7.47-5.766c-.58.192-.837 1.986-.837 5.702v5.382h1.868c1.61 0 1.932-.321 2.189-1.795.257-1.666.257-1.666.772-.32.258.833.902 1.474 1.352 1.474.515 0 1.224-.641 1.546-1.474.515-1.346.58-1.346.58.384.065 1.602.257 1.795 2.061 1.602l1.996-.192.065-5.318c.129-4.933.064-5.318-1.288-5.638-2.061-.512-3.799.705-4.379 3.076l-.451 2.115-.708-2.243c-.902-3.012-2.254-3.78-4.765-2.755zm-106.707.641c-.193.256-.387 1.089-.387 1.922 0 1.474.064 1.474 7.406 1.474 7.341 0 7.405 0 7.405-1.474 0-2.179-.579-2.435-2.64-1.409-2.319 1.217-7.213 1.217-9.531 0-1.03-.513-1.997-.705-2.254-.513zm-1.868 5.702c-1.03 1.089.708 1.538 5.731 1.538h5.409v2.243c0 1.217.322 2.243.644 2.243.386 0 .644-.961.644-2.179 0-2.115.129-2.243 2.576-2.435 1.416-.128 2.576-.512 2.576-.832 0-.705-16.872-1.282-17.581-.577z"/><path fill="#d41443" style="fill:var(--color2,#d41443)" d="M8.629 23.308c0 3.524 1.224 4.229 7.406 4.229s7.405-.705 7.405-4.229c0-1.538-.322-2.179-.966-2.179-.579 0-.965.577-.965 1.538 0 3.588-4.895 3.908-5.603.384-.322-1.858-.515-1.922-3.799-1.922H8.629v2.179zm3.993 7.24c.387 2.051 6.955 1.859 6.955-.128 0-.705-.837-.961-3.606-.961-3.027 0-3.542.192-3.348 1.089z"/></symbol><symbol id="icon-arrow" viewBox="0 0 26 32"><path fill="none" stroke="#d41443" style="stroke:var(--color1,#d41443)" stroke-linejoin="round" stroke-linecap="round" stroke-width="6.4" d="M3.542 3.2 20.368 16 3.542 28.8"/></symbol><symbol id="icon-btn-close" viewBox="0 0 32 32"><path fill="none" stroke="#fff" style="stroke:var(--color1,#fff)" stroke-width="2" d="m2.52 2 26.96 28M2 29.48 30 2.52"/></symbol><symbol id="icon-btn-open" viewBox="0 0 46 32"><path fill="none" stroke="#d41443" style="stroke:var(--color2,#d41443)" stroke-width="2.286" d="M0 2.286h45.714M0 16h45.714M0 29.714h45.714"/></symbol><symbol id="icon-number-16" viewBox="0 0 31 32"><path fill="#fff" style="fill:var(--color1,#fff)" d="M19.636 5.818a5.818 5.818 0 1 0 11.636 0 5.818 5.818 0 0 0-11.636 0z"/><path fill="#d41443" style="fill:var(--color2,#d41443)" d="M8.885 20.602c0 .149-.414.271-1.242.367-.745.078-1.609.122-2.484.122-.828 0-1.364-.034-1.609-.102-.231-.081-.346-.211-.346-.387v-8.797H1.128c-.231 0-.346-.495-.346-1.487s.116-1.887.346-2.688c.068-.258.788-.495 2.159-.713s2.423-.326 3.156-.326 1.222.027 1.466.081c.244.055.428.122.55.204a.842.842 0 0 1 .285.244.802.802 0 0 1 .143.428v13.053zm7.924-8.41c.122-.109.448-.251.977-.428s1.127-.265 1.792-.265c.679 0 1.249.102 1.711.305.475.19.841.434 1.1.733.271.298.482.672.631 1.12a6.92 6.92 0 0 1 .367 2.24c0 .76-.034 1.337-.102 1.731-.055.38-.204.807-.448 1.283-.233.479-.556.88-.95 1.196l-.007.005c-.393.326-.964.604-1.711.835-.733.217-1.595.326-2.586.326-2.131 0-3.74-.584-4.826-1.751-1.086-1.181-1.629-3.081-1.629-5.702 0-2.633.509-4.527 1.527-5.681 1.018-1.167 2.566-1.751 4.643-1.751 1.425 0 2.661.109 3.706.326 1.059.204 1.588.448 1.588.733 0 .353-.136.971-.407 1.853-.258.882-.495 1.324-.713 1.324-.068 0-.271-.034-.611-.102-.924-.19-1.765-.285-2.525-.285s-1.249.19-1.466.57c-.217.367-.326.909-.326 1.629.055-.068.143-.149.265-.244zm.448 1.833c-.393 0-.591.733-.591 2.199 0 1.452.196 2.179.591 2.179.421 0 .631-.727.631-2.179 0-1.466-.211-2.199-.631-2.199z"/><path fill="#fff" style="fill:var(--color1,#fff)" d="M11.217 30.615c-.276 0-.524-.062-.745-.186a1.429 1.429 0 0 1-.514-.522l-.004-.007a1.62 1.62 0 0 1-.187-.761v-.038.002c0-.303.062-.567.186-.791.123-.223.299-.402.511-.526l.007-.003a1.44 1.44 0 0 1 .724-.192h.022-.001c.342 0 .628.089.861.268.236.178.385.417.448.716h-.5a.639.639 0 0 0-.283-.412l-.003-.002a.924.924 0 0 0-.509-.151h-.021.001-.002a.908.908 0 0 0-.462.125l.004-.002c-.143.081-.26.204-.349.367s-.134.364-.134.605c0 .24.044.442.134.605s.205.287.349.372a.92.92 0 0 0 .46.122.967.967 0 0 0 .529-.145.653.653 0 0 0 .284-.421l.001-.004h.5c-.058.291-.206.527-.442.71s-.526.273-.867.273zm2.951 0c-.24 0-.44-.041-.599-.122a.832.832 0 0 1-.472-.748v-.021.001c0-.295.113-.521.337-.681s.532-.239.919-.239h.78v-.035c0-.252-.065-.442-.198-.57-.132-.132-.308-.198-.529-.198a.854.854 0 0 0-.495.145.622.622 0 0 0-.256.41v.003h-.5a.944.944 0 0 1 .209-.529c.124-.143.278-.252.46-.326.183-.078.377-.116.582-.116.404 0 .706.109.908.326.206.213.308.498.308.855v1.775h-.436l-.029-.518c-.087.17-.209.31-.357.417l-.003.002c-.155.113-.364.169-.628.169zm.076-.413a.79.79 0 0 0 .477-.145.911.911 0 0 0 .308-.378c.066-.143.105-.31.105-.486V29.184h-.739c-.287 0-.49.051-.611.151a.458.458 0 0 0-.175.36v.007c0 .151.055.273.163.367.113.089.27.134.471.134zm2.269.343v-2.473h-.436v-.413h.436v-.5c0-.279.071-.483.21-.611s.343-.192.611-.192h.291v.419h-.216c-.147 0-.252.031-.313.093-.063.058-.093.159-.093.303v.489h.71v.413h-.71v2.473h-.489zm2.964.07c-.275 0-.519-.062-.733-.186a1.406 1.406 0 0 1-.503-.522l-.004-.007a1.671 1.671 0 0 1-.18-.797c0-.303.06-.567.18-.791.121-.229.287-.405.5-.529.207-.121.456-.192.722-.192h.03-.002c.279 0 .52.064.721.192.206.124.363.289.471.495a1.381 1.381 0 0 1 .157.798v-.006.145h-2.298c.012.221.063.405.151.553a.96.96 0 0 0 .343.326c.14.073.287.111.442.111.202 0 .371-.047.506-.14s.235-.219.297-.378h.483a1.315 1.315 0 0 1-.445.667l-.003.002c-.217.175-.496.262-.838.262zm0-2.612a.984.984 0 0 0-.623.215c-.178.14-.281.345-.308.617h1.815c-.012-.26-.1-.463-.268-.611a.89.89 0 0 0-.59-.221h-.028.001zm3.121 2.612c-.345 0-.633-.087-.861-.262a1.02 1.02 0 0 1-.401-.705v-.005h.5a.71.71 0 0 0 .239.396c.132.109.308.163.529.163.206 0 .356-.043.454-.128a.412.412 0 0 0 .145-.314c0-.175-.064-.291-.192-.349a2.358 2.358 0 0 0-.514-.155l-.015-.002a2.994 2.994 0 0 1-.486-.141l.021.007a1.088 1.088 0 0 1-.39-.245.581.581 0 0 1-.158-.4l.001-.026v.001c0-.252.093-.458.279-.617.19-.163.446-.244.768-.244.306 0 .556.078.751.233.198.151.313.369.343.652h-.483a.489.489 0 0 0-.191-.342l-.001-.001a.657.657 0 0 0-.425-.128c-.175 0-.311.036-.407.111a.354.354 0 0 0-.14.281v.01c0 .116.06.207.18.273.124.065.291.122.5.169.199.043.369.093.533.154l-.027-.009a.913.913 0 0 1 .396.25c.105.109.157.268.157.477a.793.793 0 0 1-.297.646c-.198.167-.468.25-.809.25z"/></symbol><symbol id="icon-number-23" viewBox="0 0 38 32"><path fill="#fff" style="fill:var(--color1,#fff)" d="M26.047 5.954A5.954 5.954 0 1 0 32 0a5.953 5.953 0 0 0-5.953 5.954z"/><path fill="#d41443" style="fill:var(--color2,#d41443)" d="M7.732 11.44c-.388 0-.729-.458-1.021-1.375a9.11 9.11 0 0 1-.417-2.646c0-.194.216-.409.646-.646.431-.25 1.084-.473 1.959-.667s1.827-.292 2.855-.292c3.987 0 5.98 1.396 5.98 4.188v.029a4.89 4.89 0 0 1-.513 2.187l.013-.028c-.333.681-.701 1.229-1.104 1.646a8.447 8.447 0 0 1-1.383 1.105l-.034.02c-.625.389-1.222.694-1.792.917h4.167c.083 0 .174.042.271.125.097.069.201.292.313.667.112.361.167.819.167 1.375 0 .542-.034 1-.104 1.375-.069.361-.153.625-.25.792-.208.375-.396.577-.563.604l-.104.021H7.691c-.875 0-1.313-1.369-1.313-4.105 0-.305.903-1.146 2.709-2.521a14.195 14.195 0 0 0 1.87-1.641l.005-.005c.57-.598.854-1.084.854-1.459 0-.417-.313-.625-.938-.625s-1.284.16-1.98.479c-.68.32-1.069.479-1.167.479zM31.18 9.71c0 1.403-.556 2.452-1.667 3.146.153.069.347.236.583.5.251.264.458.528.625.792.432.681.647 1.486.647 2.417 0 1.528-.549 2.653-1.646 3.376s-2.605 1.084-4.522 1.084c-.944 0-1.84-.077-2.687-.229-.834-.167-1.474-.348-1.917-.542-.445-.208-.667-.396-.667-.563 0-.764.083-1.438.249-2.021s.355-.994.563-1.229c.208-.25.41-.375.605-.375.055 0 .423.125 1.104.375s1.347.375 2 .375c.667 0 1-.208 1-.625 0-.569-.701-.875-2.105-.917-.555-.014-.861-.028-.917-.042-.292-.097-.438-.708-.438-1.834s.147-1.744.438-1.854c.056-.028.362-.042.917-.042 1.404-.028 2.105-.313 2.105-.854 0-.417-.305-.625-.917-.625-.597 0-1.264.146-2 .438s-1.139.438-1.208.438c-.32 0-.612-.465-.876-1.396s-.396-1.59-.396-1.98c0-.361.403-.729 1.209-1.104.889-.403 2.195-.604 3.917-.604 4 0 6 1.299 6 3.897z"/><path fill="#fff" style="fill:var(--color1,#fff)" d="M1.275 30.512v-2.53H.828v-.423h.447v-.512c0-.286.071-.494.214-.625s.351-.196.625-.196h.298v.429h-.22c-.15 0-.258.032-.321.095-.063.06-.095.163-.095.31v.5h.726v.423h-.726v2.53h-.5zm3.051.071c-.278 0-.528-.063-.75-.191a1.413 1.413 0 0 1-.526-.529l-.004-.007c-.127-.234-.191-.508-.191-.822s.066-.586.196-.816c.126-.228.306-.412.523-.538l.007-.004c.226-.127.478-.191.756-.191s.528.063.75.191c.223.127.397.307.524.542.131.231.196.502.196.816s-.066.588-.196.822c-.131.231-.31.409-.536.536a1.489 1.489 0 0 1-.75.191zm0-.429a.931.931 0 0 0 .833-.5c.092-.167.137-.373.137-.619s-.045-.452-.137-.619a.906.906 0 0 0-.347-.373l-.004-.002a.924.924 0 0 0-.468-.125h-.003a.931.931 0 0 0-.833.5c-.092.167-.137.373-.137.619s.045.452.137.619.208.292.351.375a.942.942 0 0 0 .47.125zm3.523.429c-.278 0-.528-.063-.75-.191a1.41 1.41 0 0 1-.525-.529l-.004-.007c-.127-.234-.191-.508-.191-.822s.066-.586.196-.816c.125-.228.305-.412.522-.538l.007-.004c.212-.12.466-.191.737-.191h.021-.001c.278 0 .528.063.75.191.223.127.397.307.524.542.131.231.196.502.196.816s-.066.588-.196.822c-.13.231-.309.409-.536.536a1.483 1.483 0 0 1-.75.191zm0-.429a.931.931 0 0 0 .833-.5c.092-.167.137-.373.137-.619s-.045-.452-.137-.619a.906.906 0 0 0-.347-.373l-.004-.002a.924.924 0 0 0-.468-.125H7.86a.925.925 0 0 0-.833.5c-.091.167-.137.373-.137.619s.046.452.137.619a.94.94 0 0 0 .352.375.94.94 0 0 0 .47.125zm3.518.429c-.294 0-.551-.067-.774-.202a1.41 1.41 0 0 1-.508-.546l-.004-.008a1.71 1.71 0 0 1-.179-.767v-.032.002c0-.298.062-.562.185-.792a1.36 1.36 0 0 1 .512-.548 1.44 1.44 0 0 1 .774-.202c.242 0 .456.05.643.149s.331.238.435.417v-1.828h.5v4.287h-.452l-.048-.488a1.41 1.41 0 0 1-.405.384l-.006.003c-.179.115-.403.173-.673.173zm.053-.435a.985.985 0 0 0 .524-.137.943.943 0 0 0 .357-.393c.087-.167.131-.361.131-.583s-.044-.417-.131-.583a.92.92 0 0 0-.353-.385l-.004-.002a.948.948 0 0 0-.504-.143h-.021.001a.973.973 0 0 0-.879.525l-.003.005a1.27 1.27 0 0 0-.125.554v.03-.002c0 .223.042.417.125.583a.999.999 0 0 0 .357.393c.155.092.33.137.524.137zm5.088.364c-.27 0-.482-.066-.638-.196-.154-.131-.231-.367-.231-.708v-1.625h-.513v-.423h.513l.065-.708h.435v.708h.87v.423h-.87v1.625c0 .186.038.313.113.381.076.063.208.095.4.095h.31v.429h-.452zm1.135 0v-2.953h.452l.042.566c.092-.194.231-.35.417-.464s.417-.173.691-.173v.524h-.137c-.174 0-.335.032-.482.095a.72.72 0 0 0-.349.306l-.002.003c-.087.147-.131.35-.131.607v1.488h-.5zm4.747-2.953v2.953h-.452l-.03-.53a1.08 1.08 0 0 1-.406.438l-.005.003a1.16 1.16 0 0 1-.608.161c-.349 0-.629-.105-.839-.316-.206-.214-.31-.542-.31-.982v-1.727h.5v1.673c0 .615.255.923.762.923h.02a.82.82 0 0 0 .611-.273l.001-.001c.171-.186.257-.45.257-.792v-1.53h.5zm2.181 3.024c-.282 0-.536-.063-.762-.191a1.458 1.458 0 0 1-.526-.535l-.004-.007a1.665 1.665 0 0 1-.191-.779v-.039.002c0-.31.063-.58.191-.81.126-.228.306-.412.523-.538l.007-.004c.213-.124.468-.197.741-.197h.023-.001c.349 0 .643.092.881.274.242.182.394.426.458.732h-.512a.647.647 0 0 0-.289-.421l-.003-.002a.945.945 0 0 0-.521-.155h-.022.001-.003a.93.93 0 0 0-.472.127l.004-.002c-.147.083-.266.208-.357.375s-.137.373-.137.619.045.452.137.619.21.294.357.381a.942.942 0 0 0 .47.125c.206 0 .387-.05.542-.149a.671.671 0 0 0 .291-.43l.001-.004h.512c-.06.298-.211.54-.452.726s-.538.28-.887.28zm2.037-.071v-4.287h.5v2.578l1.209-1.244h.613l-1.31 1.334 1.477 1.619h-.637l-1.351-1.53v1.53h-.5zm3.957.071c-.354 0-.647-.089-.881-.268a1.04 1.04 0 0 1-.41-.722v-.005h.512c.032.155.113.29.244.405.135.112.316.167.542.167.211 0 .365-.044.464-.131a.426.426 0 0 0 .149-.321c0-.179-.066-.298-.196-.357a2.397 2.397 0 0 0-.526-.158l-.015-.002a3.1 3.1 0 0 1-.497-.144l.021.007a1.105 1.105 0 0 1-.399-.25.597.597 0 0 1-.161-.409l.001-.027v.001c0-.258.095-.469.286-.631.194-.167.456-.25.786-.25.313 0 .569.08.768.238.202.155.32.377.351.667h-.494a.501.501 0 0 0-.195-.35l-.001-.001a.67.67 0 0 0-.435-.131c-.179 0-.318.037-.417.113a.363.363 0 0 0-.143.288v.01c0 .119.062.212.185.28.127.067.298.125.512.173.204.044.377.095.545.158l-.027-.009a.93.93 0 0 1 .405.256c.107.112.161.274.161.488a.811.811 0 0 1-.304.661c-.202.171-.479.256-.828.256z"/></symbol></defs></svg>