<svg aria-hidden="true" style="width:0;height:0;position:absolute;overflow:hidden" xmlns="http://www.w3.org/2000/svg"><defs><symbol id="icon-facebook" viewBox="0 0 32 32"><path d="M16-.034C7.159-.034-.035 7.158-.035 16S7.159 32.034 16 32.034 32.035 24.842 32.035 16 24.841-.034 16-.034zm0 31C7.748 30.966 1.035 24.252 1.035 16S7.748 1.034 16 1.034 30.965 7.748 30.965 16 24.252 30.966 16 30.966zM19.5 7h-2.668C13.434 6.966 13 9.069 13 11.345V13h-1.5a.445.445 0 0 0-.5.5v3a.445.445 0 0 0 .5.5H13v7.5a.449.449 0 0 0 .503.5h3.055c.295.034.534-.205.44-.5L17 17h2.5a.445.445 0 0 0 .5-.5v-3a.445.445 0 0 0-.5-.5h-2.503L17 11.5c.097-.639.097-.535.69-.5h1.789c.139-.031.287-.014.391-.115s.164-.239.129-.385v-3A.444.444 0 0 0 19.5 7zm-.535 2.944-1.254-.048c-1.553 0-1.683.843-1.683 1.706l-.004 1.896a.53.53 0 0 0 .534.535H19v1.932h-2.44a.535.535 0 0 0-.535.534L16.024 24H14v-7.5c0-.295-.201-.534-.497-.534H12v-1.932h1.503c.142 0 .278-.056.378-.156s.118-.237.118-.379v-2.155c0-2.242.453-3.31 2.832-3.31h2.133v1.91z"/></symbol><symbol id="icon-github" viewBox="-9 -8 50 50"><path d="M16 .395c-8.836 0-16 7.163-16 16 0 7.069 4.585 13.067 10.942 15.182.8.148 1.094-.347 1.094-.77 0-.381-.015-1.642-.022-2.979-4.452.968-5.391-1.888-5.391-1.888-.728-1.849-1.776-2.341-1.776-2.341-1.452-.993.11-.973.11-.973 1.606.113 2.452 1.649 2.452 1.649 1.427 2.446 3.743 1.739 4.656 1.33.143-1.034.558-1.74 1.016-2.14-3.554-.404-7.29-1.777-7.29-7.907 0-1.747.625-3.174 1.649-4.295-.166-.403-.714-2.03.155-4.234 0 0 1.344-.43 4.401 1.64a15.353 15.353 0 0 1 4.005-.539c1.359.006 2.729.184 4.008.539 3.054-2.07 4.395-1.64 4.395-1.64.871 2.204.323 3.831.157 4.234 1.026 1.12 1.647 2.548 1.647 4.295 0 6.145-3.743 7.498-7.306 7.895.574.497 1.085 1.47 1.085 2.963 0 2.141-.019 3.864-.019 4.391 0 .426.288.925 1.099.768C27.421 29.457 32 23.462 32 16.395c0-8.837-7.164-16-16-16z"/></symbol><symbol id="icon-social-facebook" viewBox="0 0 24 24"><path d="M13 10h3v3h-3v7h-3v-7H7v-3h3V8.745c0-1.189.374-2.691 1.118-3.512C11.862 4.41 12.791 4 13.904 4H16v3h-2.1c-.498 0-.9.402-.9.899V10z"/></symbol><symbol id="icon-telegram" viewBox="-6 -10 60 50"><path d="m16.205 20.751-.635 8.339c.909 0 1.302-.364 1.774-.802l4.261-3.801 8.829 6.035c1.619.842 2.76.399 3.197-1.39l5.797-25.346c.514-2.234-.866-3.108-2.443-2.56L2.92 13.398c-2.325.842-2.29 2.052-.395 2.6l8.709 2.528L31.463 6.712c.952-.588 1.818-.263 1.106.326L16.205 20.751z"/></symbol><symbol id="icon-fcb" viewBox="0 0 33 32"><path fill="#fea5bb" style="fill:var(--color1,#fea5bb)" d="M16.471 32c8.837 0 16-7.163 16-16s-7.163-16-16-16-16 7.163-16 16 7.163 16 16 16z"/><path fill="#fff" style="fill:var(--color2,#fff)" d="M20.916 15.981h-2.61v9.618h-3.955v-9.618H12.47v-3.38h1.881v-2.188c0-1.564.739-4.014 3.99-4.014l2.929.012v3.281h-2.125c-.349 0-.839.175-.839.921v1.989h2.955l-.346 3.377z"/></symbol><symbol id="icon-git" viewBox="0 0 32 32"><path fill="#fea5bb" style="fill:var(--color1,#fea5bb)" d="M32 16c0 8.837-7.163 16-16 16S0 24.837 0 16 7.163 0 16 0s16 7.163 16 16z"/><path fill="#fff" style="fill:var(--color2,#fff)" d="M16 6.588c-5.169 0-9.412 4.242-9.412 9.412 0 4.411 3.095 8.418 7.206 9.412v-3.114a2.307 2.307 0 0 1-1.197-.03c-.556-.164-1.008-.535-1.344-1.1-.214-.361-.593-.752-.988-.723l-.097-1.099c.855-.073 1.595.521 2.034 1.259.195.328.419.52.708.605.278.082.577.043.926-.08.088-.698.407-.959.648-1.326-2.451-.366-3.428-1.666-3.816-2.693-.514-1.363-.238-3.066.671-4.142.018-.021.05-.076.037-.114-.417-1.258.091-2.3.11-2.41.481.142.559-.143 2.088.786l.264.159c.111.066.076.028.186.02a7.984 7.984 0 0 1 1.975-.278 8.016 8.016 0 0 1 2.002.285l.086.009c-.007-.001.023-.005.075-.036 1.911-1.157 1.842-.779 2.354-.946.018.111.519 1.169.107 2.411-.056.171 1.657 1.739.707 4.256-.388 1.027-1.365 2.328-3.816 2.693.314.479.692.734.69 1.722v3.887c4.111-.993 7.206-5 7.206-9.412 0-5.169-4.242-9.412-9.412-9.412z"/></symbol><symbol id="icon-tlg" viewBox="0 0 33 32"><path fill="#fea5bb" style="fill:var(--color1,#fea5bb)" d="M32.235 16c0 8.837-7.163 16-16 16s-16-7.163-16-16 7.163-16 16-16 16 7.163 16 16z"/><path fill="#fff" style="fill:var(--color2,#fff)" d="m13.102 18.375-.318 4.169c.454 0 .651-.182.887-.401l2.13-1.9 4.414 3.017c.81.421 1.38.199 1.598-.695l2.898-12.673c.257-1.117-.433-1.554-1.222-1.28L6.457 14.698c-1.162.421-1.145 1.026-.198 1.3l4.355 1.264 10.115-5.907c.476-.294.909-.131.553.163L13.1 18.375z"/></symbol><symbol id="arrow" viewBox="0 0 26 32"><path fill="none" stroke-linejoin="round" stroke-linecap="round" stroke-width="6.4" d="M5.172 3.2 19.341 16 5.172 28.8"/></symbol></defs></svg>