<svg aria-hidden="true" style="width:0;height:0;position:absolute;overflow:hidden" xmlns="http://www.w3.org/2000/svg"><defs><symbol id="icon-facebook" viewBox="0 0 32 32"><path d="M16-.034C7.159-.034-.035 7.158-.035 16S7.159 32.034 16 32.034 32.035 24.842 32.035 16 24.841-.034 16-.034zm0 31C7.748 30.966 1.035 24.252 1.035 16S7.748 1.034 16 1.034 30.965 7.748 30.965 16 24.252 30.966 16 30.966zM19.5 7h-2.668C13.434 6.966 13 9.069 13 11.345V13h-1.5a.445.445 0 0 0-.5.5v3a.445.445 0 0 0 .5.5H13v7.5a.449.449 0 0 0 .503.5h3.055c.295.034.534-.205.44-.5L17 17h2.5a.445.445 0 0 0 .5-.5v-3a.445.445 0 0 0-.5-.5h-2.503L17 11.5c.097-.639.097-.535.69-.5h1.789c.139-.031.287-.014.391-.115s.164-.239.129-.385v-3A.444.444 0 0 0 19.5 7zm-.535 2.944-1.254-.048c-1.553 0-1.683.843-1.683 1.706l-.004 1.896a.53.53 0 0 0 .534.535H19v1.932h-2.44a.535.535 0 0 0-.535.534L16.024 24H14v-7.5c0-.295-.201-.534-.497-.534H12v-1.932h1.503c.142 0 .278-.056.378-.156s.118-.237.118-.379v-2.155c0-2.242.453-3.31 2.832-3.31h2.133v1.91z"/></symbol><symbol id="icon-telegram" viewBox="0 0 28 28"><path d="m18.578 20.422 2.297-10.828c.203-.953-.344-1.328-.969-1.094l-13.5 5.203c-.922.359-.906.875-.156 1.109l3.453 1.078 8.016-5.047c.375-.25.719-.109.438.141l-6.484 5.859-.25 3.563c.359 0 .516-.156.703-.344l1.687-1.625 3.5 2.578c.641.359 1.094.172 1.266-.594zM28 14c0 7.734-6.266 14-14 14S0 21.734 0 14 6.266 0 14 0s14 6.266 14 14z"/></symbol><symbol id="icon-github" viewBox="-9 -8 50 50"><path d="M16 .395c-8.836 0-16 7.163-16 16 0 7.069 4.585 13.067 10.942 15.182.8.148 1.094-.347 1.094-.77 0-.381-.015-1.642-.022-2.979-4.452.968-5.391-1.888-5.391-1.888-.728-1.849-1.776-2.341-1.776-2.341-1.452-.993.11-.973.11-.973 1.606.113 2.452 1.649 2.452 1.649 1.427 2.446 3.743 1.739 4.656 1.33.143-1.034.558-1.74 1.016-2.14-3.554-.404-7.29-1.777-7.29-7.907 0-1.747.625-3.174 1.649-4.295-.166-.403-.714-2.03.155-4.234 0 0 1.344-.43 4.401 1.64a15.353 15.353 0 0 1 4.005-.539c1.359.006 2.729.184 4.008.539 3.054-2.07 4.395-1.64 4.395-1.64.871 2.204.323 3.831.157 4.234 1.026 1.12 1.647 2.548 1.647 4.295 0 6.145-3.743 7.498-7.306 7.895.574.497 1.085 1.47 1.085 2.963 0 2.141-.019 3.864-.019 4.391 0 .426.288.925 1.099.768C27.421 29.457 32 23.462 32 16.395c0-8.837-7.164-16-16-16z"/></symbol><symbol id="icon-social-facebook" viewBox="0 0 24 24"><path d="M13 10h3v3h-3v7h-3v-7H7v-3h3V8.745c0-1.189.374-2.691 1.118-3.512C11.862 4.41 12.791 4 13.904 4H16v3h-2.1c-.498 0-.9.402-.9.899V10z"/></symbol></defs></svg>