<svg aria-hidden="true" style="position: absolute; width: 0; height: 0; overflow: hidden;" version="1.1" xmlns="http://www.w3.org/2000/svg" xmlns:xlink="http://www.w3.org/1999/xlink"><defs>

<symbol id="icon-logo" viewBox="0 0 127 32"><path fill="#fff" style="fill: var(--color1, #fff)" d="M31.36 16.32c0 8.66-6.877 15.68-15.36 15.68s-15.36-7.020-15.36-15.68c0-8.66 6.877-15.68 15.36-15.68s15.36 7.020 15.36 15.68z"></path><path fill="#d41443" style="fill: var(--color2, #d41443)" d="M11.849 0.561c-7.405 2.243-11.849 8.074-11.849 15.442 0 6.022 3.091 11.277 8.179 13.904 2.64 1.345 3.027 0.384 0.579-1.474-1.738-1.409-2.061-2.050-2.061-4.421 0-1.666-0.386-3.011-0.966-3.524-1.158-0.961-1.288-3.46-0.128-4.357 0.45-0.384 0.901-1.666 0.965-2.819 0.323-4.228 4.895-8.201 9.467-8.201s9.144 3.972 9.466 8.201c0.064 1.153 0.515 2.435 0.966 2.819 1.158 0.897 1.030 3.396-0.129 4.357-0.579 0.513-0.966 1.858-0.966 3.524 0 2.371-0.321 3.012-2.060 4.421-2.705 2.115-1.932 2.883 1.094 1.025 4.251-2.627 7.406-8.33 7.406-13.391 0-10.124-10.561-18.325-19.964-15.506z"></path><path fill="#d41443" style="fill: var(--color2, #d41443)" d="M12.687 7.994c-1.16 0.513-2.125 1.154-2.125 1.538 0 0.705 3.478 1.987 5.474 1.987s5.474-1.281 5.474-1.987c0-0.768-3.993-2.499-5.603-2.499-0.644 0.064-2.125 0.448-3.22 0.961zM45.851 11.326c-0.966 0.256-1.158 1.089-1.158 5.702v5.382h4.572l-0.193-5.574c-0.193-5.83-0.451-6.28-3.22-5.51zM53.386 11.646c-2.125 1.154-2.898 2.563-2.898 5.318 0 3.78 2.061 5.574 5.86 5.318 2.576-0.192 2.833-0.385 3.027-1.987s0.064-1.73-1.932-1.602c-2.061 0.192-2.125 0.064-2.125-2.051s0.129-2.243 1.997-2.050c1.545 0.128 2.125-0.128 2.382-1.089 0.129-0.641 0-1.538-0.387-1.923-0.901-0.897-4.25-0.897-5.924 0.064zM61.050 11.71c-0.194 0.513-0.258 3.012-0.129 5.638l0.193 4.742h4.186c3.864 0 4.186-0.128 4.379-1.474 0.193-1.217-0.064-1.409-2.060-1.409-1.288 0-2.319-0.32-2.319-0.641 0-0.385 0.902-0.641 1.932-0.641 1.481 0 1.932-0.256 1.932-1.281s-0.451-1.281-1.932-1.281c-1.030 0-1.932-0.32-1.932-0.641 0-0.385 0.837-0.641 1.868-0.641 1.804 0 3.027-1.409 2.254-2.627-0.58-0.961-7.985-0.705-8.371 0.256zM73.993 11.518c-2.125 0.833-2.962 2.307-3.027 4.998-0.065 4.613 1.803 6.215 6.633 5.766 1.868-0.128 2.189-0.448 2.189-1.794 0-1.409-0.257-1.602-2.061-1.409-1.546 0.128-2.125-0.064-2.447-1.089-0.58-1.987 0.644-3.588 2.705-3.588 1.224 0 1.868-0.384 1.996-1.217 0.451-2.051-2.833-3.011-5.989-1.666zM81.914 11.262c-0.323 0.256-0.515 2.883-0.515 5.83v5.382l2.060-0.192c1.61-0.128 2.19-0.577 2.512-1.795l0.386-1.602 0.515 1.73c0.387 1.474 0.837 1.795 2.512 1.795 2.769 0 3.091-0.449 1.932-2.691-0.708-1.41-0.837-2.115-0.322-2.627 0.837-0.833 0.902-3.652 0.129-4.87-0.644-1.025-8.371-1.858-9.208-0.961zM87.194 14.722c0 0.705-0.257 1.281-0.644 1.281-0.322 0-0.644-0.576-0.644-1.281s0.322-1.282 0.644-1.282c0.387 0 0.644 0.577 0.644 1.282zM93.441 11.326c-0.258 0.192-0.451 2.819-0.451 5.766v5.318h4.186c4.057 0 4.186-0.064 4.186-1.602 0-1.346-0.322-1.602-1.932-1.602-1.030 0-1.932-0.32-1.932-0.641 0-0.385 0.708-0.641 1.61-0.641 1.159 0 1.61-0.321 1.61-1.282s-0.451-1.281-1.61-1.281c-0.902 0-1.61-0.32-1.61-0.641 0-0.384 0.902-0.641 1.932-0.641 1.61 0 1.932-0.256 1.932-1.602 0-1.538-0.193-1.602-3.735-1.602-2.061 0-3.992 0.192-4.186 0.448zM106.45 11.262c-1.16 0.32-4.122 8.842-3.542 10.252 0.515 1.281 3.413 1.153 4.186-0.192 0.579-1.089 0.644-1.089 1.803 0 1.482 1.281 4.701 1.474 4.701 0.256 0-0.384-0.644-2.947-1.482-5.574-1.288-4.228-1.674-4.805-3.027-4.933-0.902 0-2.061 0.064-2.64 0.192zM108.253 17.092c-0.193 0.641-0.322 0.256-0.322-0.769 0-1.089 0.129-1.538 0.322-1.153 0.129 0.448 0.129 1.345 0 1.922zM115.723 11.326c-0.58 0.192-0.837 1.986-0.837 5.702v5.382h1.868c1.61 0 1.932-0.321 2.189-1.795 0.257-1.666 0.257-1.666 0.772-0.32 0.258 0.833 0.902 1.474 1.352 1.474 0.515 0 1.224-0.641 1.546-1.474 0.515-1.346 0.58-1.346 0.58 0.384 0.065 1.602 0.257 1.795 2.061 1.602l1.996-0.192 0.065-5.318c0.129-4.933 0.064-5.318-1.288-5.638-2.061-0.512-3.799 0.705-4.379 3.076l-0.451 2.115-0.708-2.243c-0.902-3.012-2.254-3.78-4.765-2.755zM9.016 11.967c-0.193 0.256-0.387 1.089-0.387 1.922 0 1.474 0.064 1.474 7.406 1.474 7.341 0 7.405 0 7.405-1.474 0-2.179-0.579-2.435-2.64-1.409-2.319 1.217-7.213 1.217-9.531 0-1.030-0.513-1.997-0.705-2.254-0.513zM7.148 17.669c-1.030 1.089 0.708 1.538 5.731 1.538h5.409v2.243c0 1.217 0.322 2.243 0.644 2.243 0.386 0 0.644-0.961 0.644-2.179 0-2.115 0.129-2.243 2.576-2.435 1.416-0.128 2.576-0.512 2.576-0.832 0-0.705-16.872-1.282-17.581-0.577z"></path><path fill="#d41443" style="fill: var(--color2, #d41443)" d="M8.629 23.308c0 3.524 1.224 4.229 7.406 4.229s7.405-0.705 7.405-4.229c0-1.538-0.322-2.179-0.966-2.179-0.579 0-0.965 0.577-0.965 1.538 0 3.588-4.895 3.908-5.603 0.384-0.322-1.858-0.515-1.922-3.799-1.922h-3.478v2.179zM12.622 30.548c0.387 2.051 6.955 1.859 6.955-0.128 0-0.705-0.837-0.961-3.606-0.961-3.027 0-3.542 0.192-3.348 1.089z"></path></symbol>

<symbol id="icon-arrow" viewBox="0 0 26 32"><path fill="none" stroke="#d41443" style="stroke: var(--color1, #d41443)" stroke-linejoin="round" stroke-linecap="round" stroke-miterlimit="4" stroke-width="6.4" d="M3.542 3.2l16.826 12.8-16.826 12.8"></path></symbol>

<symbol id="icon-btn-close" viewBox="0 0 32 32"><path fill="none" stroke="#fff" style="stroke: var(--color1, #fff)" stroke-linejoin="miter" stroke-linecap="butt" stroke-miterlimit="4" stroke-width="2" d="M2.52 2l26.96 28M2 29.48l28-26.96"></path></symbol>

<symbol id="icon-btn-open" viewBox="0 0 46 32"><path fill="none" stroke="#d41443" style="stroke: var(--color2, #d41443)" stroke-linejoin="miter" stroke-linecap="butt" stroke-miterlimit="4" stroke-width="2.2857" d="M0 2.286h45.714M0 16h45.714M0 29.714h45.714"></path></symbol>

<symbol id="icon-number-16" viewBox="0 0 31 32"><path fill="#fff" style="fill: var(--color1, #fff)" d="M19.636 5.818c0 3.213 2.605 5.818 5.818 5.818s5.818-2.605 5.818-5.818c0-3.213-2.605-5.818-5.818-5.818s-5.818 2.605-5.818 5.818z"></path><path fill="#d41443" style="fill: var(--color2, #d41443)" d="M8.885 20.602c0 0.149-0.414 0.271-1.242 0.367-0.745 0.078-1.609 0.122-2.484 0.122h-0c-0.828 0-1.364-0.034-1.609-0.102-0.231-0.081-0.346-0.211-0.346-0.387v-8.797h-2.076c-0.231 0-0.346-0.495-0.346-1.487s0.116-1.887 0.346-2.688c0.068-0.258 0.788-0.495 2.159-0.713s2.423-0.326 3.156-0.326 1.222 0.027 1.466 0.081c0.244 0.055 0.428 0.122 0.55 0.204 0.122 0.068 0.218 0.149 0.285 0.244 0.095 0.149 0.143 0.292 0.143 0.428v13.053zM16.809 12.192c0.122-0.109 0.448-0.251 0.977-0.428s1.127-0.265 1.792-0.265c0.679 0 1.249 0.102 1.711 0.305 0.475 0.19 0.841 0.434 1.1 0.733 0.271 0.298 0.482 0.672 0.631 1.12 0.232 0.668 0.366 1.438 0.367 2.24v0c0 0.76-0.034 1.337-0.102 1.731-0.055 0.38-0.204 0.807-0.448 1.283-0.233 0.479-0.556 0.88-0.95 1.196l-0.007 0.005c-0.393 0.326-0.964 0.604-1.711 0.835-0.733 0.217-1.595 0.326-2.586 0.326-2.131 0-3.74-0.584-4.826-1.751-1.086-1.181-1.629-3.081-1.629-5.702 0-2.633 0.509-4.527 1.527-5.681 1.018-1.167 2.566-1.751 4.643-1.751 1.425 0 2.661 0.109 3.706 0.326 1.059 0.204 1.588 0.448 1.588 0.733 0 0.353-0.136 0.971-0.407 1.853-0.258 0.882-0.495 1.324-0.713 1.324-0.068 0-0.271-0.034-0.611-0.102-0.924-0.19-1.765-0.285-2.525-0.285s-1.249 0.19-1.466 0.57c-0.217 0.367-0.326 0.909-0.326 1.629 0.055-0.068 0.143-0.149 0.265-0.244zM17.257 14.025c-0.393 0-0.591 0.733-0.591 2.199 0 1.452 0.196 2.179 0.591 2.179 0.421 0 0.631-0.727 0.631-2.179 0-1.466-0.211-2.199-0.631-2.199z"></path><path fill="#fff" style="fill: var(--color1, #fff)" d="M11.217 30.615c-0.276 0-0.524-0.062-0.745-0.186-0.217-0.129-0.393-0.309-0.514-0.522l-0.004-0.007c-0.118-0.221-0.187-0.483-0.187-0.761 0-0.013 0-0.025 0-0.038l-0 0.002c0-0.303 0.062-0.567 0.186-0.791 0.123-0.223 0.299-0.402 0.511-0.526l0.007-0.003c0.208-0.121 0.457-0.192 0.724-0.192 0.007 0 0.015 0 0.022 0h-0.001c0.342 0 0.628 0.089 0.861 0.268 0.236 0.178 0.385 0.417 0.448 0.716h-0.5c-0.036-0.175-0.14-0.321-0.283-0.412l-0.003-0.002c-0.144-0.095-0.32-0.151-0.509-0.151-0.007 0-0.014 0-0.021 0l0.001-0c-0.001 0-0.002 0-0.002 0-0.168 0-0.326 0.045-0.462 0.125l0.004-0.002c-0.143 0.081-0.26 0.204-0.349 0.367s-0.134 0.364-0.134 0.605c0 0.24 0.044 0.442 0.134 0.605s0.205 0.287 0.349 0.372c0.143 0.081 0.297 0.122 0.46 0.122 0.201 0 0.378-0.049 0.529-0.145 0.146-0.096 0.25-0.246 0.284-0.421l0.001-0.004h0.5c-0.058 0.291-0.206 0.527-0.442 0.71s-0.526 0.273-0.867 0.273zM14.168 30.615c-0.24 0-0.44-0.041-0.599-0.122-0.281-0.137-0.472-0.42-0.472-0.748 0-0.007 0-0.014 0-0.021l-0 0.001c0-0.295 0.113-0.521 0.337-0.681s0.532-0.239 0.919-0.239h0.78v-0.035c0-0.252-0.065-0.442-0.198-0.57-0.132-0.132-0.308-0.198-0.529-0.198-0.19 0-0.355 0.049-0.495 0.145-0.135 0.096-0.229 0.241-0.256 0.41l-0 0.003h-0.5c0.020-0.209 0.089-0.385 0.209-0.529 0.124-0.143 0.278-0.252 0.46-0.326 0.183-0.078 0.377-0.116 0.582-0.116 0.404 0 0.706 0.109 0.908 0.326 0.206 0.213 0.308 0.498 0.308 0.855v1.775h-0.436l-0.029-0.518c-0.087 0.17-0.209 0.31-0.357 0.417l-0.003 0.002c-0.155 0.113-0.364 0.169-0.628 0.169zM14.244 30.202c0.186 0 0.345-0.049 0.477-0.145 0.136-0.097 0.239-0.223 0.308-0.378 0.066-0.143 0.105-0.31 0.105-0.486 0-0.001 0-0.002 0-0.003v0-0.006h-0.739c-0.287 0-0.49 0.051-0.611 0.151-0.107 0.085-0.175 0.214-0.175 0.36 0 0.002 0 0.005 0 0.007v-0c0 0.151 0.055 0.273 0.163 0.367 0.113 0.089 0.27 0.134 0.471 0.134zM16.513 30.545v-2.473h-0.436v-0.413h0.436v-0.5c0-0.279 0.071-0.483 0.21-0.611s0.343-0.192 0.611-0.192h0.291v0.419h-0.216c-0.147 0-0.252 0.031-0.313 0.093-0.063 0.058-0.093 0.159-0.093 0.303v0.489h0.71v0.413h-0.71v2.473h-0.489zM19.477 30.615c-0.275 0-0.519-0.062-0.733-0.186-0.214-0.13-0.385-0.309-0.503-0.522l-0.004-0.007c-0.12-0.225-0.18-0.491-0.18-0.797 0-0.303 0.060-0.567 0.18-0.791 0.121-0.229 0.287-0.405 0.5-0.529 0.207-0.121 0.456-0.192 0.722-0.192 0.010 0 0.020 0 0.030 0l-0.002-0c0.279 0 0.52 0.064 0.721 0.192 0.206 0.124 0.363 0.289 0.471 0.495 0.103 0.19 0.164 0.416 0.164 0.657 0 0.047-0.002 0.094-0.007 0.141l0-0.006v0.145h-2.298c0.012 0.221 0.063 0.405 0.151 0.553 0.093 0.143 0.208 0.252 0.343 0.326 0.14 0.073 0.287 0.111 0.442 0.111 0.202 0 0.371-0.047 0.506-0.14s0.235-0.219 0.297-0.378h0.483c-0.079 0.272-0.236 0.501-0.445 0.667l-0.003 0.002c-0.217 0.175-0.496 0.262-0.838 0.262zM19.477 28.003c-0.233 0-0.44 0.072-0.623 0.215-0.178 0.14-0.281 0.345-0.308 0.617h1.815c-0.012-0.26-0.1-0.463-0.268-0.611-0.157-0.138-0.364-0.221-0.59-0.221-0.009 0-0.019 0-0.028 0l0.001-0zM22.598 30.615c-0.345 0-0.633-0.087-0.861-0.262-0.221-0.167-0.37-0.419-0.401-0.705l-0-0.005h0.5c0.031 0.151 0.111 0.284 0.239 0.396 0.132 0.109 0.308 0.163 0.529 0.163 0.206 0 0.356-0.043 0.454-0.128 0.089-0.076 0.145-0.189 0.145-0.314v-0c0-0.175-0.064-0.291-0.192-0.349-0.152-0.067-0.33-0.121-0.514-0.155l-0.015-0.002c-0.18-0.037-0.336-0.083-0.486-0.141l0.021 0.007c-0.152-0.056-0.282-0.139-0.39-0.245l0 0c-0.098-0.104-0.158-0.245-0.158-0.4 0-0.009 0-0.017 0.001-0.026l-0 0.001c0-0.252 0.093-0.458 0.279-0.617 0.19-0.163 0.446-0.244 0.768-0.244 0.306 0 0.556 0.078 0.751 0.233 0.198 0.151 0.313 0.369 0.343 0.652h-0.483c-0.014-0.141-0.086-0.262-0.191-0.342l-0.001-0.001c-0.105-0.085-0.247-0.128-0.425-0.128-0.175 0-0.311 0.036-0.407 0.111-0.085 0.065-0.14 0.167-0.14 0.281 0 0.003 0 0.007 0 0.010v-0c0 0.116 0.060 0.207 0.18 0.273 0.124 0.065 0.291 0.122 0.5 0.169 0.199 0.043 0.369 0.093 0.533 0.154l-0.027-0.009c0.163 0.055 0.295 0.138 0.396 0.25 0.105 0.109 0.157 0.268 0.157 0.477 0.004 0.26-0.095 0.475-0.297 0.646-0.198 0.167-0.468 0.25-0.809 0.25z"></path></symbol>

<symbol id="icon-number-23" viewBox="0 0 38 32"><path fill="#fff" style="fill: var(--color1, #fff)" d="M26.047 5.954c0 3.288 2.665 5.954 5.953 5.954s5.953-2.665 5.953-5.954c0-3.288-2.665-5.954-5.953-5.954s-5.953 2.665-5.953 5.954z"></path><path fill="#d41443" style="fill: var(--color2, #d41443)" d="M7.732 11.44c-0.388 0-0.729-0.458-1.021-1.375-0.278-0.917-0.417-1.799-0.417-2.646 0-0.194 0.216-0.409 0.646-0.646 0.431-0.25 1.084-0.473 1.959-0.667s1.827-0.292 2.855-0.292c3.987 0 5.98 1.396 5.98 4.188 0 0.009 0 0.019 0 0.029 0 0.786-0.185 1.529-0.513 2.187l0.013-0.028c-0.333 0.681-0.701 1.229-1.104 1.646-0.419 0.414-0.883 0.785-1.383 1.105l-0.034 0.020c-0.625 0.389-1.222 0.694-1.792 0.917h4.167c0.083 0 0.174 0.042 0.271 0.125 0.097 0.069 0.201 0.292 0.313 0.667 0.112 0.361 0.167 0.819 0.167 1.375 0 0.542-0.034 1-0.104 1.375-0.069 0.361-0.153 0.625-0.25 0.792-0.208 0.375-0.396 0.577-0.563 0.604l-0.104 0.021h-9.127c-0.875 0-1.313-1.369-1.313-4.105 0-0.305 0.903-1.146 2.709-2.521 0.695-0.512 1.308-1.052 1.87-1.641l0.005-0.005c0.57-0.598 0.854-1.084 0.854-1.459 0-0.417-0.313-0.625-0.938-0.625s-1.284 0.16-1.98 0.479c-0.68 0.32-1.069 0.479-1.167 0.479zM31.18 9.71c0 1.403-0.556 2.452-1.667 3.146 0.153 0.069 0.347 0.236 0.583 0.5 0.251 0.264 0.458 0.528 0.625 0.792 0.432 0.681 0.647 1.486 0.647 2.417 0 1.528-0.549 2.653-1.646 3.376s-2.605 1.084-4.522 1.084c-0.944 0-1.84-0.077-2.687-0.229-0.834-0.167-1.474-0.348-1.917-0.542-0.445-0.208-0.667-0.396-0.667-0.563 0-0.764 0.083-1.438 0.249-2.021s0.355-0.994 0.563-1.229c0.208-0.25 0.41-0.375 0.605-0.375 0.055 0 0.423 0.125 1.104 0.375s1.347 0.375 2 0.375c0.667 0 1-0.208 1-0.625 0-0.569-0.701-0.875-2.105-0.917-0.555-0.014-0.861-0.028-0.917-0.042-0.292-0.097-0.438-0.708-0.438-1.834s0.147-1.744 0.438-1.854c0.056-0.028 0.362-0.042 0.917-0.042 1.404-0.028 2.105-0.313 2.105-0.854 0-0.417-0.305-0.625-0.917-0.625-0.597 0-1.264 0.146-2 0.438s-1.139 0.438-1.208 0.438c-0.32 0-0.612-0.465-0.876-1.396s-0.396-1.59-0.396-1.98c0-0.361 0.403-0.729 1.209-1.104 0.889-0.403 2.195-0.604 3.917-0.604 4 0 6 1.299 6 3.897z"></path><path fill="#fff" style="fill: var(--color1, #fff)" d="M1.275 30.512v-2.53h-0.447v-0.423h0.447v-0.512c0-0.286 0.071-0.494 0.214-0.625s0.351-0.196 0.625-0.196h0.298v0.429h-0.22c-0.15 0-0.258 0.032-0.321 0.095-0.063 0.060-0.095 0.163-0.095 0.31v0.5h0.726v0.423h-0.726v2.53h-0.5zM4.326 30.583c-0.278 0-0.528-0.063-0.75-0.191-0.223-0.129-0.403-0.311-0.526-0.529l-0.004-0.007c-0.127-0.234-0.191-0.508-0.191-0.822s0.066-0.586 0.196-0.816c0.126-0.228 0.306-0.412 0.523-0.538l0.007-0.004c0.226-0.127 0.478-0.191 0.756-0.191s0.528 0.063 0.75 0.191c0.223 0.127 0.397 0.307 0.524 0.542 0.131 0.231 0.196 0.502 0.196 0.816s-0.066 0.588-0.196 0.822c-0.131 0.231-0.31 0.409-0.536 0.536-0.223 0.127-0.473 0.191-0.75 0.191zM4.326 30.154c0.171 0 0.33-0.042 0.476-0.125s0.266-0.208 0.357-0.375c0.092-0.167 0.137-0.373 0.137-0.619s-0.045-0.452-0.137-0.619c-0.080-0.158-0.2-0.286-0.347-0.373l-0.004-0.002c-0.134-0.079-0.296-0.125-0.468-0.125-0.001 0-0.002 0-0.003 0h0c-0.171 0-0.33 0.042-0.476 0.125s-0.266 0.208-0.357 0.375c-0.092 0.167-0.137 0.373-0.137 0.619s0.045 0.452 0.137 0.619 0.208 0.292 0.351 0.375c0.147 0.083 0.304 0.125 0.47 0.125zM7.849 30.583c-0.278 0-0.528-0.063-0.75-0.191-0.223-0.129-0.402-0.311-0.525-0.529l-0.004-0.007c-0.127-0.234-0.191-0.508-0.191-0.822s0.066-0.586 0.196-0.816c0.125-0.228 0.305-0.412 0.522-0.538l0.007-0.004c0.212-0.12 0.466-0.191 0.737-0.191 0.007 0 0.014 0 0.021 0h-0.001c0.278 0 0.528 0.063 0.75 0.191 0.223 0.127 0.397 0.307 0.524 0.542 0.131 0.231 0.196 0.502 0.196 0.816s-0.066 0.588-0.196 0.822c-0.13 0.231-0.309 0.409-0.536 0.536-0.222 0.127-0.472 0.191-0.75 0.191zM7.849 30.154c0.171 0 0.33-0.042 0.476-0.125s0.266-0.208 0.357-0.375c0.092-0.167 0.137-0.373 0.137-0.619s-0.045-0.452-0.137-0.619c-0.080-0.158-0.2-0.286-0.347-0.373l-0.004-0.002c-0.134-0.079-0.296-0.125-0.468-0.125-0.001 0-0.002 0-0.003 0h0c-0.17 0-0.329 0.042-0.476 0.125s-0.266 0.208-0.357 0.375c-0.091 0.167-0.137 0.373-0.137 0.619s0.046 0.452 0.137 0.619c0.092 0.167 0.208 0.292 0.352 0.375 0.147 0.083 0.303 0.125 0.47 0.125zM11.367 30.583c-0.294 0-0.551-0.067-0.774-0.202-0.218-0.136-0.392-0.323-0.508-0.546l-0.004-0.008c-0.113-0.224-0.179-0.488-0.179-0.767 0-0.011 0-0.021 0-0.032l-0 0.002c0-0.298 0.062-0.562 0.185-0.792 0.123-0.234 0.293-0.417 0.512-0.548 0.218-0.135 0.476-0.202 0.774-0.202 0.242 0 0.456 0.050 0.643 0.149s0.331 0.238 0.435 0.417v-1.828h0.5v4.287h-0.452l-0.048-0.488c-0.11 0.156-0.247 0.285-0.405 0.384l-0.006 0.003c-0.179 0.115-0.403 0.173-0.673 0.173zM11.42 30.148c0.199 0 0.373-0.045 0.524-0.137 0.155-0.095 0.274-0.226 0.357-0.393 0.087-0.167 0.131-0.361 0.131-0.583s-0.044-0.417-0.131-0.583c-0.080-0.163-0.203-0.295-0.353-0.385l-0.004-0.002c-0.143-0.090-0.318-0.143-0.504-0.143-0.007 0-0.014 0-0.021 0l0.001-0c-0.194 0-0.369 0.048-0.524 0.143-0.153 0.094-0.274 0.226-0.355 0.382l-0.003 0.005c-0.079 0.162-0.125 0.353-0.125 0.554 0 0.010 0 0.020 0 0.030l-0-0.002c0 0.223 0.042 0.417 0.125 0.583 0.087 0.167 0.206 0.298 0.357 0.393 0.155 0.092 0.33 0.137 0.524 0.137zM16.508 30.512c-0.27 0-0.482-0.066-0.638-0.196-0.154-0.131-0.231-0.367-0.231-0.708v-1.625h-0.513v-0.423h0.513l0.065-0.708h0.435v0.708h0.87v0.423h-0.87v1.625c0 0.186 0.038 0.313 0.113 0.381 0.076 0.063 0.208 0.095 0.4 0.095h0.31v0.429h-0.452zM17.643 30.512v-2.953h0.452l0.042 0.566c0.092-0.194 0.231-0.35 0.417-0.464s0.417-0.173 0.691-0.173v0.524h-0.137c-0.174 0-0.335 0.032-0.482 0.095-0.15 0.063-0.271 0.17-0.349 0.306l-0.002 0.003c-0.087 0.147-0.131 0.35-0.131 0.607v1.488h-0.5zM22.39 27.559v2.953h-0.452l-0.030-0.53c-0.094 0.185-0.235 0.335-0.406 0.438l-0.005 0.003c-0.179 0.107-0.381 0.161-0.608 0.161-0.349 0-0.629-0.105-0.839-0.316-0.206-0.214-0.31-0.542-0.31-0.982v-1.727h0.5v1.673c0 0.615 0.255 0.923 0.762 0.923 0.006 0 0.013 0 0.020 0 0.243 0 0.461-0.106 0.611-0.273l0.001-0.001c0.171-0.186 0.257-0.45 0.257-0.792v-1.53h0.5zM24.571 30.583c-0.282 0-0.536-0.063-0.762-0.191-0.222-0.132-0.402-0.316-0.526-0.535l-0.004-0.007c-0.12-0.226-0.191-0.494-0.191-0.779 0-0.013 0-0.026 0-0.039l-0 0.002c0-0.31 0.063-0.58 0.191-0.81 0.126-0.228 0.306-0.412 0.523-0.538l0.007-0.004c0.213-0.124 0.468-0.197 0.741-0.197 0.008 0 0.015 0 0.023 0h-0.001c0.349 0 0.643 0.092 0.881 0.274 0.242 0.182 0.394 0.426 0.458 0.732h-0.512c-0.036-0.179-0.143-0.329-0.289-0.421l-0.003-0.002c-0.147-0.097-0.327-0.155-0.521-0.155-0.007 0-0.015 0-0.022 0l0.001-0c-0.001 0-0.002 0-0.003 0-0.172 0-0.334 0.046-0.472 0.127l0.004-0.002c-0.147 0.083-0.266 0.208-0.357 0.375s-0.137 0.373-0.137 0.619c0 0.246 0.045 0.452 0.137 0.619s0.21 0.294 0.357 0.381c0.147 0.083 0.304 0.125 0.47 0.125 0.206 0 0.387-0.050 0.542-0.149 0.149-0.098 0.256-0.252 0.291-0.43l0.001-0.004h0.512c-0.060 0.298-0.211 0.54-0.452 0.726s-0.538 0.28-0.887 0.28zM26.608 30.512v-4.287h0.5v2.578l1.209-1.244h0.613l-1.31 1.334 1.477 1.619h-0.637l-1.351-1.53v1.53h-0.5zM30.565 30.583c-0.354 0-0.647-0.089-0.881-0.268-0.226-0.171-0.379-0.428-0.41-0.722l-0-0.005h0.512c0.032 0.155 0.113 0.29 0.244 0.405 0.135 0.112 0.316 0.167 0.542 0.167 0.211 0 0.365-0.044 0.464-0.131 0.091-0.078 0.148-0.193 0.149-0.321v-0c0-0.179-0.066-0.298-0.196-0.357-0.156-0.068-0.337-0.124-0.526-0.158l-0.015-0.002c-0.184-0.038-0.344-0.085-0.497-0.144l0.021 0.007c-0.156-0.057-0.289-0.142-0.399-0.25l0 0c-0.1-0.107-0.161-0.251-0.161-0.409 0-0.009 0-0.018 0.001-0.027l-0 0.001c0-0.258 0.095-0.469 0.286-0.631 0.194-0.167 0.456-0.25 0.786-0.25 0.313 0 0.569 0.080 0.768 0.238 0.202 0.155 0.32 0.377 0.351 0.667h-0.494c-0.014-0.144-0.088-0.268-0.195-0.35l-0.001-0.001c-0.107-0.087-0.252-0.131-0.435-0.131-0.179 0-0.318 0.037-0.417 0.113-0.087 0.067-0.143 0.171-0.143 0.288 0 0.003 0 0.007 0 0.010v-0c0 0.119 0.062 0.212 0.185 0.28 0.127 0.067 0.298 0.125 0.512 0.173 0.204 0.044 0.377 0.095 0.545 0.158l-0.027-0.009c0.167 0.056 0.301 0.141 0.405 0.256 0.107 0.112 0.161 0.274 0.161 0.488 0.004 0.266-0.097 0.486-0.304 0.661-0.202 0.171-0.479 0.256-0.828 0.256z"></path></symbol>

<symbol id="icon-form-person" viewBox="0 0 32 32"><path d="M16 16c2.947 0 5.333-2.387 5.333-5.333s-2.387-5.333-5.333-5.333c-2.947 0-5.333 2.387-5.333 5.333s2.387 5.333 5.333 5.333zM16 18.667c-3.56 0-10.667 1.787-10.667 5.333v1.333c0 0.733 0.6 1.333 1.333 1.333h18.667c0.733 0 1.333-0.6 1.333-1.333v-1.333c0-3.547-7.107-5.333-10.667-5.333z"></path></symbol>

<symbol id="icon-form-phone" viewBox="0 0 32 32"><path d="M24.882 19.773l-3.268-0.373c-0.785-0.090-1.557 0.18-2.11 0.733l-2.367 2.367c-3.641-1.853-6.626-4.825-8.478-8.478l2.38-2.38c0.553-0.553 0.823-1.325 0.733-2.11l-0.373-3.242c-0.154-1.299-1.248-2.277-2.56-2.277h-2.226c-1.454 0-2.663 1.209-2.573 2.663 0.682 10.987 9.469 19.761 20.443 20.443 1.454 0.090 2.663-1.119 2.663-2.573v-2.226c0.013-1.3-0.965-2.393-2.264-2.547z"></path></symbol>

<symbol id="icon-form-email" viewBox="0 0 32 32"><path d="M26.667 5.333h-21.333c-1.467 0-2.653 1.2-2.653 2.667l-0.013 16c0 1.467 1.2 2.667 2.667 2.667h21.333c1.467 0 2.667-1.2 2.667-2.667v-16c0-1.467-1.2-2.667-2.667-2.667zM26.133 11l-9.427 5.893c-0.427 0.267-0.987 0.267-1.413 0l-9.427-5.893c-0.333-0.213-0.533-0.573-0.533-0.96 0-0.893 0.973-1.427 1.733-0.96l8.933 5.587 8.933-5.587c0.76-0.467 1.733 0.067 1.733 0.96 0 0.387-0.2 0.747-0.533 0.96z"></path></symbol>

<symbol id="icon-form-check" viewBox="0 0 34 32"><path d="M4.267 0h25.6c2.356 0 4.267 1.91 4.267 4.267v23.467c0 2.356-1.91 4.267-4.267 4.267h-25.6c-2.356 0-4.267-1.91-4.267-4.267v-23.467c0-2.356 1.91-4.267 4.267-4.267z"></path><path fill="#ffffff" d="M8.442 16.537l-0.147-0.14-2.205 2.088 7.767 7.41 16.318-15.567-2.19-2.089-14.128 13.465-5.416-5.167z"></path></symbol>

<symbol id="icon-vector" viewBox="0 0 32 32"><path d="M32 3.223l-3.223-3.223-12.777 12.777-12.777-12.777-3.223 3.223 12.777 12.777-12.777 12.777 3.223 3.223 12.777-12.777 12.777 12.777 3.223-3.223-12.777-12.777 12.777-12.777z"></path></symbol>


</defs></svg>